<svg xmlns="http://www.w3.org/2000/svg" viewBox="0 0 21 21" height="21" width="21"><title>bakery.svg</title><rect fill="none" x="0" y="0" width="21" height="21"></rect><rect x="1" y="1" rx="10" ry="10" width="19" height="19" stroke="#969696" style="stroke-linejoin:round;stroke-miterlimit:4;" fill="#969696" stroke-width="1"></rect><rect x="1" y="1" width="19" height="19" rx="10" ry="10" fill="#ffffff"></rect><path fill="#ffffff" transform="translate(3 3)" d="M5.294,4.382,6,9.5a.979.979,0,0,0,1,1H8a.979.979,0,0,0,1-1l.706-5.118C9.706,3,7.5,3,7.5,3S5.291,3,5.294,4.382ZM3.5,5C2,5,2,6,2,6l1,4H4.5a.793.793,0,0,0,.794-.765L4.5,5Zm-2,2.5a1.533,1.533,0,0,0-1.059.412A1.366,1.366,0,0,0,0,8.794V11H.882A1.02,1.02,0,0,0,2,10ZM11.5,5C13,5,13,6,13,6l-1,4H10.5a.793.793,0,0,1-.794-.765L10.5,5Zm2,2.5a1.533,1.533,0,0,1,1.059.412A1.366,1.366,0,0,1,15,8.794V11h-.882A1.02,1.02,0,0,1,13,10Z" style="stroke-linejoin:round;stroke-miterlimit:4;" stroke="#ffffff" stroke-width="1"></path><path fill="#e6462a" transform="translate(3 3)" d="M5.294,4.382,6,9.5a.979.979,0,0,0,1,1H8a.979.979,0,0,0,1-1l.706-5.118C9.706,3,7.5,3,7.5,3S5.291,3,5.294,4.382ZM3.5,5C2,5,2,6,2,6l1,4H4.5a.793.793,0,0,0,.794-.765L4.5,5Zm-2,2.5a1.533,1.533,0,0,0-1.059.412A1.366,1.366,0,0,0,0,8.794V11H.882A1.02,1.02,0,0,0,2,10ZM11.5,5C13,5,13,6,13,6l-1,4H10.5a.793.793,0,0,1-.794-.765L10.5,5Zm2,2.5a1.533,1.533,0,0,1,1.059.412A1.366,1.366,0,0,1,15,8.794V11h-.882A1.02,1.02,0,0,1,13,10Z"></path></svg>