<svg xmlns="http://www.w3.org/2000/svg" viewBox="0 0 21 21" height="21" width="21"><title>bank-JP.svg</title><rect fill="none" x="0" y="0" width="21" height="21"></rect><rect x="1" y="1" rx="10" ry="10" width="19" height="19" stroke="#969696" style="stroke-linejoin:round;stroke-miterlimit:4;" fill="#969696" stroke-width="1"></rect><rect x="1" y="1" width="19" height="19" rx="10" ry="10" fill="#ffffff"></rect><path fill="#ffffff" transform="translate(3 3)" d="M12.2808,3.3763l-2.9,3.625H11.25a.75.75,0,0,1,0,1.5H8.5v1h2.75a.75.75,0,0,1,0,1.5H8.5v1.25a1,1,0,0,1-2,0v-1.25H3.75a.75.75,0,1,1,0-1.5H6.5v-1H3.75a.75.75,0,0,1,0-1.5H5.6193l-2.9-3.625A1,1,0,0,1,4.2771,2.1216l.0037.0047L7.5,6.15l3.2192-4.024a1,1,0,0,1,1.5653,1.2453Z" style="stroke-linejoin:round;stroke-miterlimit:4;" stroke="#ffffff" stroke-width="1"></path><path fill="#e6462a" transform="translate(3 3)" d="M12.2808,3.3763l-2.9,3.625H11.25a.75.75,0,0,1,0,1.5H8.5v1h2.75a.75.75,0,0,1,0,1.5H8.5v1.25a1,1,0,0,1-2,0v-1.25H3.75a.75.75,0,1,1,0-1.5H6.5v-1H3.75a.75.75,0,0,1,0-1.5H5.6193l-2.9-3.625A1,1,0,0,1,4.2771,2.1216l.0037.0047L7.5,6.15l3.2192-4.024a1,1,0,0,1,1.5653,1.2453Z"></path></svg>