<svg id="02bc6e0b-3965-433c-ba3e-0038b93d7666" data-name="cave" xmlns="http://www.w3.org/2000/svg" width="21" height="21" viewBox="0 0 21 21"><title>cave</title><rect width="21" height="21" fill="none"/><path d="M10.5,1h0A9.5,9.5,0,0,1,20,10.5h0A9.5,9.5,0,0,1,10.5,20h0A9.5,9.5,0,0,1,1,10.5H1A9.5,9.5,0,0,1,10.5,1Z" fill="#969696" stroke="#969696" stroke-linejoin="round"/><path d="M10.5,1h0A9.5,9.5,0,0,1,20,10.5h0A9.5,9.5,0,0,1,10.5,20h0A9.5,9.5,0,0,1,1,10.5H1A9.5,9.5,0,0,1,10.5,1Z" fill="#fff"/><path d="M15.41,8.58l-1.34,8a0.5,0.5,0,0,1-.49.41H7.42a0.5,0.5,0,0,1-.49-0.41l-1.34-8A0.5,0.5,0,0,1,6.08,8h8.83A0.5,0.5,0,0,1,15.41,8.58ZM16,6.5a0.5,0.5,0,0,1-.5.5H5.5a0.5,0.5,0,0,1,0-1H8V4.5A0.5,0.5,0,0,1,8.5,4h4a0.5,0.5,0,0,1,.5.5V6h2.5A0.5,0.5,0,0,1,16,6.5ZM12,6V5H9V6h3Z" fill="#fff" stroke="#fff" stroke-linejoin="round"/><path d="M6.1027,14.1563c0-1.1176,2.2351-4.47,4.4438-4.47,2.2615,0,4.4966,3.3527,4.4966,4.47h-8.94Zm4.47-7.8229c-3.3527,0-7.8229,4.47-7.8229,7.8229H3.8676c0-3.3527,4.47-6.7054,6.7054-6.7054s6.7054,3.3527,6.7054,6.7054h1.1176C18.3958,10.8036,13.9256,6.3333,10.5729,6.3333Z" fill="#e6462a"/></svg>