<?xml version="1.0" encoding="UTF-8" standalone="no"?>
<!-- Created with Inkscape (http://www.inkscape.org/) -->

<svg
   version="1.0"
   width="21.000002"
   height="21.000002"
   id="svg2"
   inkscape:version="1.2.1 (9c6d41e410, 2022-07-14)"
   sodipodi:docname="chairlift.svg"
   inkscape:export-filename="chairlift.svg"
   inkscape:export-xdpi="96"
   inkscape:export-ydpi="96"
   xmlns:inkscape="http://www.inkscape.org/namespaces/inkscape"
   xmlns:sodipodi="http://sodipodi.sourceforge.net/DTD/sodipodi-0.dtd"
   xmlns="http://www.w3.org/2000/svg"
   xmlns:svg="http://www.w3.org/2000/svg"
   xmlns:rdf="http://www.w3.org/1999/02/22-rdf-syntax-ns#"
   xmlns:cc="http://creativecommons.org/ns#"
   xmlns:dc="http://purl.org/dc/elements/1.1/">
  <metadata
     id="metadata2908">
    <rdf:RDF>
      <cc:Work
         rdf:about="">
        <dc:format>image/svg+xml</dc:format>
        <dc:type
           rdf:resource="http://purl.org/dc/dcmitype/StillImage" />
      </cc:Work>
    </rdf:RDF>
  </metadata>
  <sodipodi:namedview
     pagecolor="#ffffff"
     bordercolor="#666666"
     borderopacity="1"
     objecttolerance="10"
     gridtolerance="10"
     guidetolerance="10"
     inkscape:pageopacity="0"
     inkscape:pageshadow="2"
     inkscape:window-width="1920"
     inkscape:window-height="1017"
     id="namedview2906"
     showgrid="false"
     inkscape:zoom="14.971439"
     inkscape:cx="14.32728"
     inkscape:cy="10.820603"
     inkscape:window-x="-8"
     inkscape:window-y="-8"
     inkscape:window-maximized="1"
     inkscape:current-layer="svg2"
     inkscape:showpageshadow="2"
     inkscape:pagecheckerboard="0"
     inkscape:deskcolor="#d1d1d1">
    <inkscape:grid
       type="xygrid"
       id="grid12036"
       originx="-14.516919"
       originy="-30.957154" />
  </sodipodi:namedview>
  <defs
     id="defs4" />
  <rect
     x="0.99715"
     y="0.99715"
     rx="10.003001"
     ry="10.003001"
     width="19.005699"
     height="19.005699"
     stroke="#969696"
     style="display:inline;stroke-linejoin:round;stroke-miterlimit:4"
     fill="#969696"
     stroke-width="1.0003"
     id="rect10909-6" />
  <rect
     x="0.99599999"
     y="0.99599999"
     width="19.007"
     height="19.007"
     rx="10.003684"
     ry="10.003683"
     fill="#ffffff"
     id="rect10911"
     style="display:inline;stroke-width:1.00036" />
  <g
     transform="matrix(0.28191533,0,0,0.32006229,-130.11493,-73.557196)"
     id="layer1">
    <!--<g
       style="font-size:14px;font-style:normal;font-weight:normal;fill:#000000;fill-opacity:1;stroke:none;font-family:Bitstream Vera Sans"
       id="flowRoot2455" />-->
    <g
       transform="translate(465.052,231.609)"
       id="g2499">
      <g
         transform="matrix(92.4729,0,0,90.8441,-23.9059,-41.9362)"
         id="g2521"
         style="display:inline;fill:#e6462a;fill-opacity:1;stroke:none;stroke-width:1;stroke-dasharray:none;stroke-opacity:1">
        <path
           d="m 0.54790725,0.94172226 -0.001109,-5.4041e-4 h 5.5429e-4 c -0.00776,-0.008624 -0.0121945,-0.0189144 -0.0121945,-0.0297002 h 5.5429e-4 L 0.53515842,0.61693443 0.32064543,0.68772845 V 0.66989484 L 0.7674089,0.52236226 v 0.0183965 l -0.21395868,0.0702311 v 0.29128227 h 5.5429e-4 c -5.5429e-4,0.0199953 0.0155203,0.0362301 0.0360293,0.0362301 h 5.5431e-4 0.0936762 v 0.0178111 h -0.10143637 5.5429e-4 c -0.0138574,0 -0.0271606,-0.004301 -0.035475,-0.0145911 h 5.5429e-4 z"
           id="path2523"
           style="font-style:normal;font-variant:normal;font-weight:normal;font-stretch:normal;letter-spacing:normal;word-spacing:normal;text-anchor:start;display:inline;fill:#e6462a;fill-opacity:1;stroke:none;stroke-width:1;stroke-linecap:round;stroke-linejoin:round;stroke-miterlimit:10.433;stroke-dasharray:none;stroke-dashoffset:0pt;stroke-opacity:1" />
        <path
           d="m 0.5373756,1.0654857 0.3065263,-0.052429 h 5.5431e-4 c 0.0116402,-0.00214 0.020509,-0.00916 0.029932,-0.018374 0.008869,-0.0151316 0.0121945,-0.00322 0.008869,0.005427 -0.002771,0.01619 -0.0166289,0.027538 -0.0327035,0.030241 h 5.5431e-4 l -0.31040639,0.05351 -0.003326,-0.018374 h 5.543e-4"
           id="path2525"
           style="font-style:normal;font-variant:normal;font-weight:normal;font-stretch:normal;letter-spacing:normal;word-spacing:normal;text-anchor:start;display:inline;fill:#e6462a;fill-opacity:1;stroke:none;stroke-width:1;stroke-linecap:round;stroke-linejoin:round;stroke-miterlimit:10.433;stroke-dasharray:none;stroke-dashoffset:0pt;stroke-opacity:1" />
        <path
           d="m 0.64380065,0.88497896 0.0731672,0.004864 h 5.5429e-4 c 0.0110859,0.001103 0.0199547,0.0102678 0.0194004,0.0221569 h 5.5431e-4 L 0.7308253,1.0254862 H 0.7020019 L 0.6964589,0.9298557 h -0.10531645 5.5429e-4 c -0.0121945,0 -0.0266063,-0.004864 -0.0266063,-0.018374 h 5.5431e-4 L 0.56453575,0.8790345 V 0.7904069 h 5.5429e-4 C 0.56453575,0.76825 0.58559904,0.753141 0.60721664,0.7536589 h 5.543e-4 0.003326 5.5431e-4 c 0.0194004,5.6294e-4 0.0393551,0.0135103 0.0382465,0.034046 h 5.5431e-4 l -0.006652,0.0972742 h 5.5429e-4"
           id="path2527"
           style="font-style:normal;font-variant:normal;font-weight:normal;font-stretch:normal;letter-spacing:normal;word-spacing:normal;text-anchor:start;display:inline;fill:#e6462a;fill-opacity:1;stroke:none;stroke-width:1;stroke-linecap:round;stroke-linejoin:round;stroke-miterlimit:10.433;stroke-dasharray:none;stroke-dashoffset:0pt;stroke-opacity:1" />
        <path
           d="m 0.60777134,0.67421814 0.001848,4.504e-5 0.001848,1.3509e-4 0.001801,2.2517e-4 0.001778,2.9274e-4 0.001732,3.8278e-4 0.001709,4.5034e-4 0.001686,5.4042e-4 0.00164,6.0796e-4 0.001594,6.7551e-4 0.001547,7.4308e-4 0.001524,8.3313e-4 0.001455,8.7817e-4 0.001409,9.6825e-4 0.001363,0.001013 0.001316,0.001081 0.001247,0.001126 0.001178,0.001193 0.001132,0.001261 0.001086,0.001306 9.9311e-4,0.001351 9.2383e-4,0.001396 8.7764e-4,0.001441 7.8526e-4,0.001509 7.3906e-4,0.001531 6.2359e-4,0.001576 5.7739e-4,0.001621 4.8501e-4,0.001644 3.9263e-4,0.001689 3.2333e-4,0.001734 2.3096e-4,0.001756 1.3858e-4,0.001779 4.619e-5,0.001824 c 0,0.0188919 -0.0160746,0.0345864 -0.0360293,0.0345864 -0.0194004,0 -0.035475,-0.0156945 -0.035475,-0.0345864 0,-0.0194548 0.0160746,-0.0346089 0.035475,-0.0346089 h 5.5429e-4 z"
           id="path2529"
           style="font-style:normal;font-variant:normal;font-weight:normal;font-stretch:normal;letter-spacing:normal;word-spacing:normal;text-anchor:start;display:inline;fill:#e6462a;fill-opacity:1;stroke:none;stroke-width:1;stroke-linecap:round;stroke-linejoin:round;stroke-miterlimit:10.433;stroke-dasharray:none;stroke-dashoffset:0pt;stroke-opacity:1" />
      </g>
    </g>
  </g>
</svg>
