<svg xmlns="http://www.w3.org/2000/svg" viewBox="0 0 21 21" height="21" width="21"><title>circle.svg</title><rect fill="none" x="0" y="0" width="21" height="21"></rect><rect x="1" y="1" rx="10" ry="10" width="19" height="19" stroke="#969696" style="stroke-linejoin:round;stroke-miterlimit:4;" fill="#969696" stroke-width="1"></rect><rect x="1" y="1" width="19" height="19" rx="10" ry="10" fill="#ffffff"></rect><path fill="#ffffff" transform="translate(3 3)" d="M14,7.5c0,3.5899-2.9101,6.5-6.5,6.5S1,11.0899,1,7.5S3.9101,1,7.5,1S14,3.9101,14,7.5z" style="stroke-linejoin:round;stroke-miterlimit:4;" stroke="#ffffff" stroke-width="1"></path><path fill="#e6462a" transform="translate(3 3)" d="M14,7.5c0,3.5899-2.9101,6.5-6.5,6.5S1,11.0899,1,7.5S3.9101,1,7.5,1S14,3.9101,14,7.5z"></path></svg>