<svg xmlns="http://www.w3.org/2000/svg" viewBox="0 0 20 20" height="20" width="20"><title>drinking-water.svg</title><rect fill="none" x="0" y="0" width="20" height="20"></rect><rect x="0" y="0" rx="9.5" ry="9.5" width="19" height="19" stroke="#969696" style="stroke-linejoin:round;stroke-miterlimit:4;" fill="#969696" stroke-width="1"></rect><rect x="0" y="0" width="19" height="19" rx="9.5" ry="9.5" fill="#ffffff"></rect><path fill="#0a2fff" transform="translate(2 2)" d="M6,1A2,2,0,0,0,4,3V6.5a.5.5,0,0,0,.5.5h2A.5.5,0,0,0,7,6.5v-2A.5.5,0,0,1,7.5,4H14V1ZM7,15H4a.5.5,0,0,1-.48-.38L2,8.62a.5.5,0,0,1,.365-.606A.558.558,0,0,1,2.5,8h6a.5.5,0,0,1,.514.485A.47.47,0,0,1,9,8.62l-1.5,6A.5.5,0,0,1,7,15ZM3.65,11H7.36l.5-2H3.14Z"></path></svg>