<svg xmlns="http://www.w3.org/2000/svg" viewBox="0 0 21 21" height="21" width="21"><title>elevator.svg</title><rect fill="none" x="0" y="0" width="21" height="21"></rect><rect x="1" y="1" rx="10" ry="10" width="19" height="19" stroke="#969696" style="stroke-linejoin:round;stroke-miterlimit:4;" fill="#969696" stroke-width="1"></rect><rect x="1" y="1" width="19" height="19" rx="10" ry="10" fill="#ffffff"></rect><path fill="#ffffff" transform="translate(3 3)" d="M11,1H4A1,1,0,0,0,3,2V13a1,1,0,0,0,1,1h7a1,1,0,0,0,1-1V2A1,1,0,0,0,11,1ZM7.5,12.5l-2-4h4Zm-2-6,2-4,2,4Z" style="stroke-linejoin:round;stroke-miterlimit:4;" stroke="#ffffff" stroke-width="1"></path><path fill="#e6462a" transform="translate(3 3)" d="M11,1H4A1,1,0,0,0,3,2V13a1,1,0,0,0,1,1h7a1,1,0,0,0,1-1V2A1,1,0,0,0,11,1ZM7.5,12.5l-2-4h4Zm-2-6,2-4,2,4Z"></path></svg>