<svg xmlns="http://www.w3.org/2000/svg" viewBox="0 0 21 21" height="21" width="21"><title>ferry-JP.svg</title><rect fill="none" x="0" y="0" width="21" height="21"></rect><rect x="1" y="1" rx="10" ry="10" width="19" height="19" stroke="#969696" style="stroke-linejoin:round;stroke-miterlimit:4;" fill="#969696" stroke-width="1"></rect><rect x="1" y="1" width="19" height="19" rx="10" ry="10" fill="#ffffff"></rect><path fill="#ffffff" transform="translate(3 3)" d="M3,7c0,0.5,0,5,0,5c0,0.6,0.4,1,1,1h6c0.6,0,1-0.4,1-1c0,0,0-4.5,0-5c0-2-3-7-4-7S3,5,3,7z M5,11V8c0-3,2-5.5,2-5.5S9,5,9,8
	v3H5z" style="stroke-linejoin:round;stroke-miterlimit:4;" stroke="#ffffff" stroke-width="1"></path><path fill="#e6462a" transform="translate(3 3)" d="M3,7c0,0.5,0,5,0,5c0,0.6,0.4,1,1,1h6c0.6,0,1-0.4,1-1c0,0,0-4.5,0-5c0-2-3-7-4-7S3,5,3,7z M5,11V8c0-3,2-5.5,2-5.5S9,5,9,8
	v3H5z"></path></svg>