<svg xmlns="http://www.w3.org/2000/svg" viewBox="0 0 21 21" height="21" width="21"><title>fire-station-JP.svg</title><rect fill="none" x="0" y="0" width="21" height="21"></rect><rect x="1" y="1" rx="10" ry="10" width="19" height="19" stroke="#969696" style="stroke-linejoin:round;stroke-miterlimit:4;" fill="#969696" stroke-width="1"></rect><rect x="1" y="1" width="19" height="19" rx="10" ry="10" fill="#ffffff"></rect><path fill="#ffffff" transform="translate(3 3)" d="M8.5,8.1489V11.75a1,1,0,0,1-2,0V8.1489A5.0084,5.0084,0,0,1,2.5,3.25a1,1,0,0,1,2,0,3,3,0,0,0,6,0,1,1,0,0,1,2,0A5.0082,5.0082,0,0,1,8.5,8.1489Z" style="stroke-linejoin:round;stroke-miterlimit:4;" stroke="#ffffff" stroke-width="1"></path><path fill="#e6462a" transform="translate(3 3)" d="M8.5,8.1489V11.75a1,1,0,0,1-2,0V8.1489A5.0084,5.0084,0,0,1,2.5,3.25a1,1,0,0,1,2,0,3,3,0,0,0,6,0,1,1,0,0,1,2,0A5.0082,5.0082,0,0,1,8.5,8.1489Z"></path></svg>