<svg xmlns="http://www.w3.org/2000/svg" viewBox="0 0 21 21" height="21" width="21"><title>fitness-centre.svg</title><rect fill="none" x="0" y="0" width="21" height="21"></rect><rect x="1" y="1" rx="10" ry="10" width="19" height="19" stroke="#969696" style="stroke-linejoin:round;stroke-miterlimit:4;" fill="#969696" stroke-width="1"></rect><rect x="1" y="1" width="19" height="19" rx="10" ry="10" fill="#ffffff"></rect><path fill="#ffffff" transform="translate(3 3)" d="M14.5,7V8h-1v2h-1v1H11V8H4v3H2.5V10h-1V8H.5V7h1V5h1V4H4V7h7V4h1.5V5h1V7Z" style="stroke-linejoin:round;stroke-miterlimit:4;" stroke="#ffffff" stroke-width="1"></path><path fill="#e6462a" transform="translate(3 3)" d="M14.5,7V8h-1v2h-1v1H11V8H4v3H2.5V10h-1V8H.5V7h1V5h1V4H4V7h7V4h1.5V5h1V7Z"></path></svg>