<?xml version="1.0" encoding="utf-8"?>
<!-- Generator: Adobe Illustrator 19.2.1, SVG Export Plug-In . SVG Version: 6.00 Build 0)  -->
<svg version="1.1" id="Calque_1" xmlns="http://www.w3.org/2000/svg" xmlns:xlink="http://www.w3.org/1999/xlink" x="0px" y="0px"
	 width="21px" height="21px" viewBox="0 0 21 21" enable-background="new 0 0 21 21" xml:space="preserve">
<title>aerialway.svg</title>
<rect fill="none" width="21" height="21"/>
<path fill="#969696" stroke="#969696" stroke-linejoin="round" d="M10.5,1L10.5,1c5.247,0,9.5,4.253,9.5,9.5l0,0
	c0,5.247-4.253,9.5-9.5,9.5l0,0C5.253,20,1,15.747,1,10.5l0,0C1,5.253,5.253,1,10.5,1z"/>
<path fill="#FFFFFF" d="M10.5,1L10.5,1c5.247,0,9.5,4.253,9.5,9.5l0,0c0,5.247-4.253,9.5-9.5,9.5l0,0C5.253,20,1,15.747,1,10.5l0,0
	C1,5.253,5.253,1,10.5,1z"/>
<path fill="#E6462A" d="M8.514,2.563L4.303,6.248l4.212,3.685V7.827h4.212v2.106l4.212-3.685l-4.212-3.685v2.106H8.514V2.563z"/>
<path fill="#E6462A" d="M3.229,11.173c0.775,0,2.212,2.073,2.902,2.073c0.647,0,2.171-2.073,2.902-2.073
	c0.732,0,2.257,2.073,2.902,2.073c0.776,0,2.207-2.073,2.901-2.073c0.775-0.03,2.3,2.073,2.902,2.073v3.11
	c-0.73,0-2.213-2.073-2.902-2.073c-0.688,0-2.171,2.073-2.901,2.073c-0.694,0-2.171-2.073-2.902-2.073
	c-0.737,0-2.212,2.073-2.902,2.073c-0.774,0-2.17-2.073-2.902-2.073L3.229,11.173z"/>
</svg>
