<svg xmlns="http://www.w3.org/2000/svg" viewBox="0 0 21 21" height="21" width="21"><title>furniture.svg</title><rect fill="none" x="0" y="0" width="21" height="21"></rect><rect x="1" y="1" rx="10" ry="10" width="19" height="19" stroke="#969696" style="stroke-linejoin:round;stroke-miterlimit:4;" fill="#969696" stroke-width="1"></rect><rect x="1" y="1" width="19" height="19" rx="10" ry="10" fill="#ffffff"></rect><path fill="#ffffff" transform="translate(3 3)" d="M9,10.142V8.5A.5.5,0,0,0,8.5,8h-1a.5.5,0,0,0-.5.5v1.641a3.991,3.991,0,0,0-2.957,3.272.507.507,0,0,0,.5.586h6.922a.507.507,0,0,0,.5-.586A3.991,3.991,0,0,0,9,10.142Zm4.639-3.863-2.5-5A.5.5,0,0,0,10.692,1H5.308a.5.5,0,0,0-.446.276l-2.5,5A.5.5,0,0,0,2.806,7H11V8.5a.5.5,0,0,0,1,0V7h1.194A.5.5,0,0,0,13.639,6.279Z" style="stroke-linejoin:round;stroke-miterlimit:4;" stroke="#ffffff" stroke-width="1"></path><path fill="#e6462a" transform="translate(3 3)" d="M9,10.142V8.5A.5.5,0,0,0,8.5,8h-1a.5.5,0,0,0-.5.5v1.641a3.991,3.991,0,0,0-2.957,3.272.507.507,0,0,0,.5.586h6.922a.507.507,0,0,0,.5-.586A3.991,3.991,0,0,0,9,10.142Zm4.639-3.863-2.5-5A.5.5,0,0,0,10.692,1H5.308a.5.5,0,0,0-.446.276l-2.5,5A.5.5,0,0,0,2.806,7H11V8.5a.5.5,0,0,0,1,0V7h1.194A.5.5,0,0,0,13.639,6.279Z"></path></svg>