<svg xmlns="http://www.w3.org/2000/svg" viewBox="0 0 21 21" height="21" width="21"><title>globe.svg</title><rect fill="none" x="0" y="0" width="21" height="21"></rect><rect x="1" y="1" rx="10" ry="10" width="19" height="19" stroke="#969696" style="stroke-linejoin:round;stroke-miterlimit:4;" fill="#969696" stroke-width="1"></rect><rect x="1" y="1" width="19" height="19" rx="10" ry="10" fill="#ffffff"></rect><path fill="#ffffff" transform="translate(3 3)" d="M11.981,9.481,11.26,8.76A4.979,4.979,0,1,1,4.24,1.74l-.721-.721A5.991,5.991,0,0,0,7,11.475V13H6.5a.5.5,0,0,0,0,1h2a.5.5,0,0,0,0-1H8V11.473A5.983,5.983,0,0,0,11.981,9.481ZM7.5,9A3.5,3.5,0,1,0,4,5.5,3.5,3.5,0,0,0,7.5,9Zm1-5,.364-.592a2.5,2.5,0,0,1,.823.9L9.5,5h-1ZM6.656,3.156,7.5,4V5L8,6H9.94a2.494,2.494,0,0,1-1.5,1.814L8,7H6.5L5.05,5A2.5,2.5,0,0,1,6.656,3.156Z" style="stroke-linejoin:round;stroke-miterlimit:4;" stroke="#ffffff" stroke-width="1"></path><path fill="#e6462a" transform="translate(3 3)" d="M11.981,9.481,11.26,8.76A4.979,4.979,0,1,1,4.24,1.74l-.721-.721A5.991,5.991,0,0,0,7,11.475V13H6.5a.5.5,0,0,0,0,1h2a.5.5,0,0,0,0-1H8V11.473A5.983,5.983,0,0,0,11.981,9.481ZM7.5,9A3.5,3.5,0,1,0,4,5.5,3.5,3.5,0,0,0,7.5,9Zm1-5,.364-.592a2.5,2.5,0,0,1,.823.9L9.5,5h-1ZM6.656,3.156,7.5,4V5L8,6H9.94a2.494,2.494,0,0,1-1.5,1.814L8,7H6.5L5.05,5A2.5,2.5,0,0,1,6.656,3.156Z"></path></svg>