<svg xmlns="http://www.w3.org/2000/svg" viewBox="0 0 21 21" height="21" width="21"><title>highway-rest-area.svg</title><rect fill="none" x="0" y="0" width="21" height="21"></rect><rect x="1" y="1" rx="10" ry="10" width="19" height="19" stroke="#969696" style="stroke-linejoin:round;stroke-miterlimit:4;" fill="#969696" stroke-width="1"></rect><rect x="1" y="1" width="19" height="19" rx="10" ry="10" fill="#ffffff"></rect><path fill="#ffffff" transform="translate(3 3)" d="M13.5,13h-3V9h3a.5.5,0,0,0,.4092-.7871L11.66,5h.84a.5.5,0,0,0,.3838-.82l-2.5-3a.5155.5155,0,0,0-.7676,0l-2.5,3A.5.5,0,0,0,7.5,5h.84L6.0908,8.2129A.5.5,0,0,0,6.5,9h3v4H4V11H5.5a.5.5,0,0,0,0-1h-4a.5.5,0,0,0,0,1H3v2H1.5a.5.5,0,0,0,0,1h12a.5.5,0,0,0,0-1Z" style="stroke-linejoin:round;stroke-miterlimit:4;" stroke="#ffffff" stroke-width="1"></path><path fill="#e6462a" transform="translate(3 3)" d="M13.5,13h-3V9h3a.5.5,0,0,0,.4092-.7871L11.66,5h.84a.5.5,0,0,0,.3838-.82l-2.5-3a.5155.5155,0,0,0-.7676,0l-2.5,3A.5.5,0,0,0,7.5,5h.84L6.0908,8.2129A.5.5,0,0,0,6.5,9h3v4H4V11H5.5a.5.5,0,0,0,0-1h-4a.5.5,0,0,0,0,1H3v2H1.5a.5.5,0,0,0,0,1h12a.5.5,0,0,0,0-1Z"></path></svg>