<svg xmlns="http://www.w3.org/2000/svg" viewBox="0 0 21 21" height="21" width="21"><title>hospital-JP.svg</title><rect fill="none" x="0" y="0" width="21" height="21"></rect><rect x="1" y="1" rx="10" ry="10" width="19" height="19" stroke="#969696" style="stroke-linejoin:round;stroke-miterlimit:4;" fill="#969696" stroke-width="1"></rect><rect x="1" y="1" width="19" height="19" rx="10" ry="10" fill="#ffffff"></rect><path fill="#ffffff" transform="translate(3 3)" d="M12.5038,2.25H2.496A1.0049,1.0049,0,0,0,1.5,3.2631V8.8438a1.0153,1.0153,0,0,0,.5507.9062l4.78,2.8394a1.4743,1.4743,0,0,0,1.3382,0L12.9493,9.75A1.015,1.015,0,0,0,13.5,8.8438V3.2631A1.0046,1.0046,0,0,0,12.5038,2.25ZM10.5,7.75h-2v2h-2v-2h-2v-2h2v-2h2v2h2Z" style="stroke-linejoin:round;stroke-miterlimit:4;" stroke="#ffffff" stroke-width="1"></path><path fill="#e6462a" transform="translate(3 3)" d="M12.5038,2.25H2.496A1.0049,1.0049,0,0,0,1.5,3.2631V8.8438a1.0153,1.0153,0,0,0,.5507.9062l4.78,2.8394a1.4743,1.4743,0,0,0,1.3382,0L12.9493,9.75A1.015,1.015,0,0,0,13.5,8.8438V3.2631A1.0046,1.0046,0,0,0,12.5038,2.25ZM10.5,7.75h-2v2h-2v-2h-2v-2h2v-2h2v2h2Z"></path></svg>