<svg xmlns="http://www.w3.org/2000/svg" viewBox="0 0 21 21" height="21" width="21"><title>ice-cream.svg</title><rect fill="none" x="0" y="0" width="21" height="21"></rect><rect x="1" y="1" rx="10" ry="10" width="19" height="19" stroke="#969696" style="stroke-linejoin:round;stroke-miterlimit:4;" fill="#969696" stroke-width="1"></rect><rect x="1" y="1" width="19" height="19" rx="10" ry="10" fill="#ffffff"></rect><path fill="#ffffff" transform="translate(3 3)" d="M5.44,8.17a3.473,3.473,0,0,0,2-.63A3.5,3.5,0,0,0,9,8.14h.44L8,13.7a.5.5,0,0,1-.92,0Zm6-3.473a2,2,0,0,1-4,0h0a2,2,0,1,1-2-2h.12a2,2,0,1,1,3.75,0h.13A2,2,0,0,1,11.439,4.7Z" style="stroke-linejoin:round;stroke-miterlimit:4;" stroke="#ffffff" stroke-width="1"></path><path fill="#e6462a" transform="translate(3 3)" d="M5.44,8.17a3.473,3.473,0,0,0,2-.63A3.5,3.5,0,0,0,9,8.14h.44L8,13.7a.5.5,0,0,1-.92,0Zm6-3.473a2,2,0,0,1-4,0h0a2,2,0,1,1-2-2h.12a2,2,0,1,1,3.75,0h.13A2,2,0,0,1,11.439,4.7Z"></path></svg>