<svg xmlns="http://www.w3.org/2000/svg" viewBox="0 0 21 21" height="21" width="21"><title>landuse.svg</title><rect fill="none" x="0" y="0" width="21" height="21"></rect><rect x="1" y="1" rx="10" ry="10" width="19" height="19" stroke="#969696" style="stroke-linejoin:round;stroke-miterlimit:4;" fill="#969696" stroke-width="1"></rect><rect x="1" y="1" width="19" height="19" rx="10" ry="10" fill="#ffffff"></rect><path fill="#ffffff" transform="translate(3 3)" d="M8.911,3.854A.248.248,0,0,1,9,4.044V7.75A.25.25,0,0,1,8.75,8H6.25A.25.25,0,0,1,6,7.75V6H5V7.75A.25.25,0,0,1,4.75,8H2.25A.25.25,0,0,1,2,7.75v-3.7a.248.248,0,0,1,.089-.19L5.343,1.132a.245.245,0,0,1,.315,0ZM7.752,9.5a.248.248,0,0,0-.138.042L5,11.5H4v-2a.5.5,0,0,0-1,0v2H2v-2a.5.5,0,0,0-1,0v4.25a.25.25,0,0,0,.25.25h6.5A.25.25,0,0,0,8,13.75v-4A.248.248,0,0,0,7.752,9.5ZM14,6.245v6.5a.253.253,0,0,1-.253.253H10.253A.253.253,0,0,1,10,12.747V6.25A.249.249,0,0,1,10.25,6H11V5.249A.249.249,0,0,1,11.249,5h1.5A.253.253,0,0,1,13,5.253V6h.755A.245.245,0,0,1,14,6.245ZM13,11H11v1h2Zm0-2H11v1h2Zm0-2H11V8h2Z" style="stroke-linejoin:round;stroke-miterlimit:4;" stroke="#ffffff" stroke-width="1"></path><path fill="#e6462a" transform="translate(3 3)" d="M8.911,3.854A.248.248,0,0,1,9,4.044V7.75A.25.25,0,0,1,8.75,8H6.25A.25.25,0,0,1,6,7.75V6H5V7.75A.25.25,0,0,1,4.75,8H2.25A.25.25,0,0,1,2,7.75v-3.7a.248.248,0,0,1,.089-.19L5.343,1.132a.245.245,0,0,1,.315,0ZM7.752,9.5a.248.248,0,0,0-.138.042L5,11.5H4v-2a.5.5,0,0,0-1,0v2H2v-2a.5.5,0,0,0-1,0v4.25a.25.25,0,0,0,.25.25h6.5A.25.25,0,0,0,8,13.75v-4A.248.248,0,0,0,7.752,9.5ZM14,6.245v6.5a.253.253,0,0,1-.253.253H10.253A.253.253,0,0,1,10,12.747V6.25A.249.249,0,0,1,10.25,6H11V5.249A.249.249,0,0,1,11.249,5h1.5A.253.253,0,0,1,13,5.253V6h.755A.245.245,0,0,1,14,6.245ZM13,11H11v1h2Zm0-2H11v1h2Zm0-2H11V8h2Z"></path></svg>