<svg xmlns="http://www.w3.org/2000/svg" viewBox="0 0 21 21" height="21" width="21"><title>landmark-JP.svg</title><rect fill="none" x="0" y="0" width="21" height="21"></rect><rect x="1" y="1" rx="10" ry="10" width="19" height="19" stroke="#969696" style="stroke-linejoin:round;stroke-miterlimit:4;" fill="#969696" stroke-width="1"></rect><rect x="1" y="1" width="19" height="19" rx="10" ry="10" fill="#ffffff"></rect><path fill="#ffffff" transform="translate(3 3)" d="M9.5,4.5a2,2,0,1,1-2-2A2,2,0,0,1,9.5,4.5Zm-6,4a2,2,0,1,0,2,2A2,2,0,0,0,3.5,8.5Zm8,0a2,2,0,1,0,2,2A2,2,0,0,0,11.5,8.5Z" style="stroke-linejoin:round;stroke-miterlimit:4;" stroke="#ffffff" stroke-width="1"></path><path fill="#e6462a" transform="translate(3 3)" d="M9.5,4.5a2,2,0,1,1-2-2A2,2,0,0,1,9.5,4.5Zm-6,4a2,2,0,1,0,2,2A2,2,0,0,0,3.5,8.5Zm8,0a2,2,0,1,0,2,2A2,2,0,0,0,11.5,8.5Z"></path></svg>