<?xml version="1.0" encoding="UTF-8"?>
<svg xmlns="http://www.w3.org/2000/svg" xmlns:xlink="http://www.w3.org/1999/xlink" width="21px" height="21px" viewBox="0 0 21 21" version="1.1">
<defs>
<filter id="alpha" filterUnits="objectBoundingBox" x="0%" y="0%" width="100%" height="100%">
  <feColorMatrix type="matrix" in="SourceGraphic" values="0 0 0 0 1 0 0 0 0 1 0 0 0 0 1 0 0 0 1 0"/>
</filter>
<mask id="mask0">
  <g filter="url(#alpha)">
<rect x="0" y="0" width="21" height="21" style="fill:rgb(0%,0%,0%);fill-opacity:0.121569;stroke:none;"/>
  </g>
</mask>
<clipPath id="clip1">
  <rect x="0" y="0" width="21" height="21"/>
</clipPath>
<g id="surface5" clip-path="url(#clip1)">
<path style=" stroke:none;fill-rule:nonzero;fill:rgb(100%,33.333333%,33.333333%);fill-opacity:1;" d="M 0 2.296875 L 0 2.953125 L 2.953125 0 L 2.296875 0 Z M 0 7.546875 L 0 8.203125 L 8.203125 0 L 7.546875 0 Z M 0 12.796875 L 0 13.453125 L 13.453125 0 L 12.796875 0 Z M 0 18.046875 L 0 18.703125 L 18.703125 0 L 18.046875 0 Z M 2.296875 21 L 2.953125 21 L 21 2.953125 L 21 2.296875 Z M 7.546875 21 L 8.203125 21 L 21 8.203125 L 21 7.546875 Z M 12.796875 21 L 13.453125 21 L 21 13.453125 L 21 12.796875 Z M 18.046875 21 L 18.703125 21 L 21 18.703125 L 21 18.046875 Z M 18.046875 21 "/>
</g>
</defs>
<g id="surface1">
<use xlink:href="#surface5" mask="url(#mask0)"/>
</g>
</svg>
