<svg xmlns="http://www.w3.org/2000/svg" viewBox="0 0 21 21" height="21" width="21"><title>monument-JP.svg</title><rect fill="none" x="0" y="0" width="21" height="21"></rect><rect x="1" y="1" rx="10" ry="10" width="19" height="19" stroke="#969696" style="stroke-linejoin:round;stroke-miterlimit:4;" fill="#969696" stroke-width="1"></rect><rect x="1" y="1" width="19" height="19" rx="10" ry="10" fill="#ffffff"></rect><path fill="#ffffff" transform="translate(3 3)" d="M12,13H4c-0.5,0-1-0.5-1-1V5c0-2,0.8-4,4-4c3.1,0,4,2,4,4v6h1c0.5,0,1,0.5,1,1S12.5,13,12,13z M5,11h4V5c0-1,0-2-2-2
	S5,4,5,5V11z" style="stroke-linejoin:round;stroke-miterlimit:4;" stroke="#ffffff" stroke-width="1"></path><path fill="#e6462a" transform="translate(3 3)" d="M12,13H4c-0.5,0-1-0.5-1-1V5c0-2,0.8-4,4-4c3.1,0,4,2,4,4v6h1c0.5,0,1,0.5,1,1S12.5,13,12,13z M5,11h4V5c0-1,0-2-2-2
	S5,4,5,5V11z"></path></svg>