<svg xmlns="http://www.w3.org/2000/svg" viewBox="0 0 21 21" height="21" width="21"><title>paint.svg</title><rect fill="none" x="0" y="0" width="21" height="21"></rect><rect x="1" y="1" rx="10" ry="10" width="19" height="19" stroke="#969696" style="stroke-linejoin:round;stroke-miterlimit:4;" fill="#969696" stroke-width="1"></rect><rect x="1" y="1" width="19" height="19" rx="10" ry="10" fill="#ffffff"></rect><path fill="#ffffff" transform="translate(3 3)" d="M13.5,2.5h-1V1.5027C12.5,1.225,12.2749,1,11.9973,1H1.5027C1.2251,1,1,1.225,1,1.5027v2.9946C1,4.7749,1.2251,5,1.5027,5
	h10.4946C12.2749,5,12.5,4.7749,12.5,4.4973V3.5H13v3.1021L6.8877,8.0127C6.6606,8.0654,6.5,8.2676,6.5,8.5v1.5074
	c-0.2783,0.02-0.5,0.246-0.5,0.5295v2.9261C6,13.7596,6.2404,14,6.5369,14h0.9261C7.7596,14,8,13.7596,8,13.4631v-2.9261
	c0-0.2834-0.2217-0.5095-0.5-0.5295v-1.11l6.1123-1.4102C13.8389,7.4351,14,7.2329,14,7V3C14,2.7236,13.7764,2.5,13.5,2.5z" style="stroke-linejoin:round;stroke-miterlimit:4;" stroke="#ffffff" stroke-width="1"></path><path fill="#e6462a" transform="translate(3 3)" d="M13.5,2.5h-1V1.5027C12.5,1.225,12.2749,1,11.9973,1H1.5027C1.2251,1,1,1.225,1,1.5027v2.9946C1,4.7749,1.2251,5,1.5027,5
	h10.4946C12.2749,5,12.5,4.7749,12.5,4.4973V3.5H13v3.1021L6.8877,8.0127C6.6606,8.0654,6.5,8.2676,6.5,8.5v1.5074
	c-0.2783,0.02-0.5,0.246-0.5,0.5295v2.9261C6,13.7596,6.2404,14,6.5369,14h0.9261C7.7596,14,8,13.7596,8,13.4631v-2.9261
	c0-0.2834-0.2217-0.5095-0.5-0.5295v-1.11l6.1123-1.4102C13.8389,7.4351,14,7.2329,14,7V3C14,2.7236,13.7764,2.5,13.5,2.5z"></path></svg>