<svg xmlns="http://www.w3.org/2000/svg" viewBox="0 0 21 21" height="21" width="21"><title>police-JP.svg</title><rect fill="none" x="0" y="0" width="21" height="21"></rect><rect x="1" y="1" rx="10" ry="10" width="19" height="19" stroke="#969696" style="stroke-linejoin:round;stroke-miterlimit:4;" fill="#969696" stroke-width="1"></rect><rect x="1" y="1" width="19" height="19" rx="10" ry="10" fill="#ffffff"></rect><path fill="#ffffff" transform="translate(3 3)" d="M7.5,1A6.5,6.5,0,1,0,14,7.5,6.5,6.5,0,0,0,7.5,1Zm2.6,2.84L7.5,6.44,4.9,3.84A4.4428,4.4428,0,0,1,10.1,3.84ZM3.84,4.9007,6.4394,7.5l-2.6,2.5993A4.4429,4.4429,0,0,1,3.84,4.9007ZM4.9,11.16l2.6-2.6,2.6,2.6A4.4428,4.4428,0,0,1,4.9,11.16Zm6.26-1.0606L8.5606,7.5l2.6-2.5993a4.4429,4.4429,0,0,1-.0006,5.1986Z" style="stroke-linejoin:round;stroke-miterlimit:4;" stroke="#ffffff" stroke-width="1"></path><path fill="#e6462a" transform="translate(3 3)" d="M7.5,1A6.5,6.5,0,1,0,14,7.5,6.5,6.5,0,0,0,7.5,1Zm2.6,2.84L7.5,6.44,4.9,3.84A4.4428,4.4428,0,0,1,10.1,3.84ZM3.84,4.9007,6.4394,7.5l-2.6,2.5993A4.4429,4.4429,0,0,1,3.84,4.9007ZM4.9,11.16l2.6-2.6,2.6,2.6A4.4428,4.4428,0,0,1,4.9,11.16Zm6.26-1.0606L8.5606,7.5l2.6-2.5993a4.4429,4.4429,0,0,1-.0006,5.1986Z"></path></svg>