<svg xmlns="http://www.w3.org/2000/svg" viewBox="0 0 21 21" height="21" width="21"><title>religious-jewish.svg</title><rect fill="none" x="0" y="0" width="21" height="21"></rect><rect x="1" y="1" rx="10" ry="10" width="19" height="19" stroke="#969696" style="stroke-linejoin:round;stroke-miterlimit:4;" fill="#969696" stroke-width="1"></rect><rect x="1" y="1" width="19" height="19" rx="10" ry="10" fill="#ffffff"></rect><path fill="#ffffff" transform="translate(3 3)" d="M15,12H9.78L7.5,15l-2.26-3H0l2.7-4L0,4h5.3l2.2-4l2.34,4H15l-2.56,4L15,12z" style="stroke-linejoin:round;stroke-miterlimit:4;" stroke="#ffffff" stroke-width="1"></path><path fill="#e6462a" transform="translate(3 3)" d="M15,12H9.78L7.5,15l-2.26-3H0l2.7-4L0,4h5.3l2.2-4l2.34,4H15l-2.56,4L15,12z"></path></svg>