<svg xmlns="http://www.w3.org/2000/svg" viewBox="0 0 21 21" height="21" width="21"><title>roadblock.svg</title><rect fill="none" x="0" y="0" width="21" height="21"></rect><rect x="1" y="1" rx="10" ry="10" width="19" height="19" stroke="#969696" style="stroke-linejoin:round;stroke-miterlimit:4;" fill="#969696" stroke-width="1"></rect><rect x="1" y="1" width="19" height="19" rx="10" ry="10" fill="#ffffff"></rect><path fill="#000000" transform="translate(3 3)" d="M7.5,0C3.3579,0,0,3.3579,0,7.5S3.3579,15,7.5,15S15,11.6421,15,7.5S11.6421,0,7.5,0z M3,6h9v3H3V6z" style="stroke-linejoin:round;stroke-miterlimit:4;" stroke="#000000" stroke-width="1"></path><path fill="#ff0000" transform="translate(3 3)" d="M7.5,0C3.3579,0,0,3.3579,0,7.5S3.3579,15,7.5,15S15,11.6421,15,7.5S11.6421,0,7.5,0z M3,6h9v3H3V6z"></path></svg>