<svg xmlns="http://www.w3.org/2000/svg" viewBox="0 0 21 21" height="21" width="21"><title>square-stroked.svg</title><rect fill="none" x="0" y="0" width="21" height="21"></rect><rect x="1" y="1" rx="10" ry="10" width="19" height="19" stroke="#969696" style="stroke-linejoin:round;stroke-miterlimit:4;" fill="#969696" stroke-width="1"></rect><rect x="1" y="1" width="19" height="19" rx="10" ry="10" fill="#ffffff"></rect><path fill="#ffffff" transform="translate(3 3)" d="M12.7,2.3v10.4H2.3V2.3H12.7 M13,1H2C1.4477,1,1,1.4477,1,2v11c0,0.5523,0.4477,1,1,1h11c0.5523,0,1-0.4477,1-1V2
	C14,1.4477,13.5523,1,13,1L13,1z" style="stroke-linejoin:round;stroke-miterlimit:4;" stroke="#ffffff" stroke-width="1"></path><path fill="#e6462a" transform="translate(3 3)" d="M12.7,2.3v10.4H2.3V2.3H12.7 M13,1H2C1.4477,1,1,1.4477,1,2v11c0,0.5523,0.4477,1,1,1h11c0.5523,0,1-0.4477,1-1V2
	C14,1.4477,13.5523,1,13,1L13,1z"></path></svg>