<svg xmlns="http://www.w3.org/2000/svg" viewBox="0 0 21 21" height="21" width="21"><title>triangle-stroked.svg</title><rect fill="none" x="0" y="0" width="21" height="21"></rect><rect x="1" y="1" rx="10" ry="10" width="19" height="19" stroke="#969696" style="stroke-linejoin:round;stroke-miterlimit:4;" fill="#969696" stroke-width="1"></rect><rect x="1" y="1" width="19" height="19" rx="10" ry="10" fill="#ffffff"></rect><path fill="#ffffff" transform="translate(3 3)" d="M7.5243,1.5004
	C7.2429,1.4913,6.9787,1.6423,6.8336,1.8952l-5.5,9.8692C1.0218,12.3078,1.395,12.9999,2,13h11
	c0.605-0.0001,0.9782-0.6922,0.6664-1.2355l-5.5-9.8692C8.0302,1.6579,7.7884,1.5092,7.5243,1.5004z M7.5,3.8993l4.1267,7.4704
	H3.3733L7.5,3.8993z" style="stroke-linejoin:round;stroke-miterlimit:4;" stroke="#ffffff" stroke-width="1"></path><path fill="#e6462a" transform="translate(3 3)" d="M7.5243,1.5004
	C7.2429,1.4913,6.9787,1.6423,6.8336,1.8952l-5.5,9.8692C1.0218,12.3078,1.395,12.9999,2,13h11
	c0.605-0.0001,0.9782-0.6922,0.6664-1.2355l-5.5-9.8692C8.0302,1.6579,7.7884,1.5092,7.5243,1.5004z M7.5,3.8993l4.1267,7.4704
	H3.3733L7.5,3.8993z"></path></svg>