<svg xmlns="http://www.w3.org/2000/svg" viewBox="0 0 21 21" height="21" width="21"><title>triangle.svg</title><rect fill="none" x="0" y="0" width="21" height="21"></rect><rect x="1" y="1" rx="10" ry="10" width="19" height="19" stroke="#969696" style="stroke-linejoin:round;stroke-miterlimit:4;" fill="#969696" stroke-width="1"></rect><rect x="1" y="1" width="19" height="19" rx="10" ry="10" fill="#ffffff"></rect><path fill="#ffffff" transform="translate(3 3)" d="M7.5385,2
	C7.2437,2,7.0502,2.1772,6.9231,2.3846l-5.8462,9.5385C1,12,1,12.1538,1,12.3077C1,12.8462,1.3846,13,1.6923,13h11.6154
	C13.6923,13,14,12.8462,14,12.3077c0-0.1538,0-0.2308-0.0769-0.3846L8.1538,2.3846C8.028,2.1765,7.7882,2,7.5385,2z" style="stroke-linejoin:round;stroke-miterlimit:4;" stroke="#ffffff" stroke-width="1"></path><path fill="#e6462a" transform="translate(3 3)" d="M7.5385,2
	C7.2437,2,7.0502,2.1772,6.9231,2.3846l-5.8462,9.5385C1,12,1,12.1538,1,12.3077C1,12.8462,1.3846,13,1.6923,13h11.6154
	C13.6923,13,14,12.8462,14,12.3077c0-0.1538,0-0.2308-0.0769-0.3846L8.1538,2.3846C8.028,2.1765,7.7882,2,7.5385,2z"></path></svg>